1.9Hzhigh3min_grf.mot
version=1
nRows=10
nColumns 19
inDegrees=yes
endheader
time	1_ground_force_vx	1_ground_force_vy	1_ground_force_vz	1_ground_force_px	1_ground_force_py	1_ground_force_pz	1_ground_torque_x	1_ground_torque_y	1_ground_torque_z	2_ground_force_vx	2_ground_force_vy	2_ground_force_vz	2_ground_force_px	2_ground_force_py	2_ground_force_pz	2_ground_torque_x	2_ground_torque_y	2_ground_torque_z
            2.502500	          -17.227265	         1000.772491	          -65.919446	           -0.275411	            0.006472	           -0.465133	           -0.088718	            5.153822	           -0.339475	           81.953789	         1734.466787	          102.776312	           -0.317743	            0.005440	           -0.726793	            0.150382	            3.182685	            0.188591
            2.503000	          -20.569256	         1003.286852	          -63.882659	           -0.275320	            0.006471	           -0.464956	           -0.057037	            2.782035	           -0.177142	           86.583890	         1736.693724	          102.641432	           -0.317744	            0.005440	           -0.726749	            0.144260	            2.893560	            0.171014
            2.503500	          -20.567551	         1004.545339	          -63.097702	           -0.275274	            0.006471	           -0.464963	           -0.061528	            3.005103	           -0.188757	           91.545741	         1737.997354	          103.582481	           -0.317812	            0.005440	           -0.726802	            0.082807	            1.572095	            0.093695
            2.504000	          -17.773799	         1006.712999	          -64.012485	           -0.275020	            0.006471	           -0.464997	           -0.098557	            5.582318	           -0.354955	           93.176366	         1740.579860	          104.013343	           -0.317724	            0.005441	           -0.726879	            0.004391	            0.082023	            0.004902
            2.504500	          -15.714604	         1005.999020	          -65.579790	           -0.274753	            0.006473	           -0.465415	           -0.132719	            8.496265	           -0.553861	           90.318109	         1740.572888	          103.075996	           -0.317625	            0.005441	           -0.726805	           -0.033989	           -0.655030	           -0.038791
            2.505000	          -15.348968	         1007.082318	          -65.942909	           -0.274661	            0.006473	           -0.465481	           -0.148400	            9.736900	           -0.637564	           84.179705	         1740.559432	          100.638345	           -0.317475	            0.005441	           -0.726588	            0.003893	            0.080491	            0.004654
            2.505500	          -18.694352	         1007.620276	          -65.427881	           -0.274568	            0.006474	           -0.465726	           -0.153946	            8.297665	           -0.538793	           78.312222	         1743.311079	           97.741150	           -0.317245	            0.005441	           -0.726522	            0.071632	            1.594598	            0.089403
            2.506000	          -23.731307	         1007.789571	          -63.075938	           -0.274692	            0.006475	           -0.465804	           -0.125575	            5.332771	           -0.333770	           76.203632	         1743.127345	           95.441905	           -0.317264	            0.005441	           -0.726330	            0.119177	            2.726120	            0.149264
            2.506500	          -28.631729	         1009.041802	          -61.040693	           -0.274558	            0.006474	           -0.465510	           -0.086537	            3.049745	           -0.184490	           78.879058	         1741.666539	           94.684663	           -0.317371	            0.005440	           -0.726201	            0.111170	            2.454666	            0.133446
            2.507000	          -30.142334	         1009.398170	          -60.118274	           -0.274456	            0.006473	           -0.465412	           -0.102136	            3.420302	           -0.203708	           83.658691	         1741.497538	           95.292047	           -0.317378	            0.005439	           -0.726145	            0.043719	            0.910088	            0.049799
